<svg width="35" height="35" viewBox="0 0 35 35" fill="none" xmlns="http://www.w3.org/2000/svg">
<path d="M28.75 19.375H19.375V28.75C19.375 29.7812 18.5312 30.625 17.5 30.625C16.4688 30.625 15.625 29.7812 15.625 28.75V19.375H6.25C5.21875 19.375 4.375 18.5312 4.375 17.5C4.375 16.4688 5.21875 15.625 6.25 15.625H15.625V6.25C15.625 5.21875 16.4688 4.375 17.5 4.375C18.5312 4.375 19.375 5.21875 19.375 6.25V15.625H28.75C29.7812 15.625 30.625 16.4688 30.625 17.5C30.625 18.5312 29.7812 19.375 28.75 19.375Z" fill="#A9A9A9"/>
</svg>
