<svg width="50" height="50" viewBox="0 0 50 50" fill="none" xmlns="http://www.w3.org/2000/svg">
<path d="M4.16669 25.0001C4.16669 13.4942 13.4941 4.16675 25 4.16675C36.506 4.16675 45.8334 13.4942 45.8334 25.0001C45.8334 36.506 36.506 45.8334 25 45.8334C13.4941 45.8334 4.16669 36.506 4.16669 25.0001Z" fill="white"/>
<path d="M25.2083 4.375C13.7083 4.375 4.375 13.7083 4.375 25.2083C4.375 36.7083 13.7083 46.0417 25.2083 46.0417C36.7083 46.0417 46.0417 36.7083 46.0417 25.2083C46.0417 13.7083 36.7083 4.375 25.2083 4.375ZM33.5417 27.2917H27.2917V33.5417C27.2917 34.6875 26.3542 35.625 25.2083 35.625C24.0625 35.625 23.125 34.6875 23.125 33.5417V27.2917H16.875C15.7292 27.2917 14.7917 26.3542 14.7917 25.2083C14.7917 24.0625 15.7292 23.125 16.875 23.125H23.125V16.875C23.125 15.7292 24.0625 14.7917 25.2083 14.7917C26.3542 14.7917 27.2917 15.7292 27.2917 16.875V23.125H33.5417C34.6875 23.125 35.625 24.0625 35.625 25.2083C35.625 26.3542 34.6875 27.2917 33.5417 27.2917Z" fill="#00BEB3"/>
</svg>
