<svg width="28" height="28" viewBox="0 0 28 28" fill="none" xmlns="http://www.w3.org/2000/svg">
<path d="M26.8329 1.41994C26.0323 0.639942 24.739 0.639942 23.9384 1.41994L13.9003 11.1799L3.86218 1.39994C3.06159 0.619941 1.76834 0.619941 0.967749 1.39994C0.167163 2.17994 0.167163 3.43994 0.967749 4.21994L11.0059 13.9999L0.967749 23.7799C0.167163 24.5599 0.167163 25.8199 0.967749 26.5999C1.76834 27.3799 3.06159 27.3799 3.86218 26.5999L13.9003 16.8199L23.9384 26.5999C24.739 27.3799 26.0323 27.3799 26.8329 26.5999C27.6334 25.8199 27.6334 24.5599 26.8329 23.7799L16.7947 13.9999L26.8329 4.21994C27.6129 3.45994 27.6129 2.17994 26.8329 1.41994Z" fill="white"/>
</svg>
