<svg width="30" height="30" viewBox="0 0 35 35" fill="none" xmlns="http://www.w3.org/2000/svg">
    <path 
            d="M8.75002 27.7083C8.75002 29.3125 10.0625 30.625 11.6667 30.625H23.3334C24.9375 30.625 26.25 29.3125 26.25 27.7083V13.125C26.25 11.5208 24.9375 10.2083 23.3334 10.2083H11.6667C10.0625 10.2083 8.75002 11.5208 8.75002 13.125V27.7083ZM26.25 5.83333H22.6042L21.5688 4.79792C21.3063 4.53542 20.9271 4.375 20.5479 4.375H14.4521C14.0729 4.375 13.6938 4.53542 13.4313 4.79792L12.3959 5.83333H8.75002C7.94794 5.83333 7.29169 6.48958 7.29169 7.29167C7.29169 8.09375 7.94794 8.75 8.75002 8.75H26.25C27.0521 8.75 27.7084 8.09375 27.7084 7.29167C27.7084 6.48958 27.0521 5.83333 26.25 5.83333Z" fill="white" />
</svg>