<svg width="30" height="30" viewBox="0 0 38 24" fill="none" xmlns="http://www.w3.org/2000/svg">
<path d="M2.21117 24H35.0557C36.1848 24 37.1085 23.1 37.1085 22C37.1085 20.9 36.1848 20 35.0557 20H2.21117C1.08214 20 0.158386 20.9 0.158386 22C0.158386 23.1 1.08214 24 2.21117 24ZM2.21117 14H35.0557C36.1848 14 37.1085 13.1 37.1085 12C37.1085 10.9 36.1848 10 35.0557 10H2.21117C1.08214 10 0.158386 10.9 0.158386 12C0.158386 13.1 1.08214 14 2.21117 14ZM0.158386 2C0.158386 3.1 1.08214 4 2.21117 4H35.0557C36.1848 4 37.1085 3.1 37.1085 2C37.1085 0.9 36.1848 0 35.0557 0H2.21117C1.08214 0 0.158386 0.9 0.158386 2Z" fill="white"/>
</svg>
