<svg width="30" height="30" viewBox="0 0 44 24" fill="none" xmlns="http://www.w3.org/2000/svg">
<mask id="mask0_20_159" style="mask-type:luminance" maskUnits="userSpaceOnUse" x="0" y="0" width="44" height="24">
<path d="M43.1211 0H0.5V24H43.1211V0Z" fill="white"/>
</mask>
<g mask="url(#mask0_20_159)">
<path d="M15.2632 17.4662L11.9594 20.7698C10.8659 21.8502 9.38925 22.4541 7.85201 22.4495C6.31477 22.4449 4.8418 21.8322 3.7548 20.7452C2.66779 19.6583 2.05506 18.1853 2.05043 16.648C2.04578 15.1107 2.64962 13.6341 3.73003 12.5406L8.66464 7.606C8.66208 7.51905 8.66032 7.43197 8.66032 7.34461C8.65985 6.60973 8.75418 5.87785 8.94102 5.16711L2.64939 11.4587C1.27944 12.8385 0.512165 14.705 0.515637 16.6493C0.519109 18.5937 1.29304 20.4574 2.66791 21.8322C4.04278 23.2071 5.90651 23.981 7.85085 23.9844C9.79519 23.9879 11.6616 23.2206 13.0414 21.8506L16.345 18.547L15.2632 17.4662Z" fill="white"/>
<path 
        d="M26.4658 24C25.5009 24.0017 24.5451 23.8126 23.6535 23.4438C22.7618 23.0751 21.9517 22.5337 21.2699 21.8509L11.9594 12.5403C10.5845 11.1616 9.81308 9.29359 9.81445 7.3465C9.81583 5.39942 10.5899 3.53248 11.9668 2.15571C13.3436 0.778939 15.2105 0.0049067 17.1577 0.00360272C19.1047 0.00229876 20.9728 0.773832 22.3514 2.14875L31.6619 11.4593C32.69 12.4865 33.3904 13.7956 33.6742 15.2211C33.9581 16.6464 33.8125 18.124 33.2563 19.4667C32.6999 20.8094 31.7578 21.9567 30.549 22.7639C29.3402 23.5708 27.9192 24.001 26.4658 24ZM22.3514 20.7698C23.4454 21.8481 24.9212 22.45 26.4573 22.4444C27.9932 22.4389 29.4647 21.8262 30.5509 20.74C31.6369 19.654 32.2496 18.1824 32.2552 16.6465C32.2607 15.1105 31.6588 13.6345 30.5806 12.5406L21.2701 3.23008C20.7311 2.68329 20.0894 2.24854 19.3816 1.95089C18.674 1.65324 17.9144 1.49857 17.1468 1.49579C16.3789 1.49299 15.6183 1.64216 14.9085 1.93466C14.1987 2.22717 13.5538 2.65726 13.0109 3.20012C12.468 3.74298 12.038 4.3879 11.7454 5.09772C11.4529 5.80754 11.3038 6.56822 11.3066 7.33593C11.3094 8.10366 11.464 8.86325 11.7617 9.57092C12.0593 10.2786 12.4941 10.9204 13.0409 11.4593L22.3514 20.7698Z" fill="white"/>
<path 
        d="M30.5804 2.14874L27.2768 5.45239L28.3581 6.53371L31.6618 3.23006C32.7558 2.15186 34.2316 1.54992 35.7677 1.55548C37.3036 1.56105 38.7751 2.17369 39.8613 3.25982C40.9473 4.34594 41.56 5.81742 41.5655 7.35342C41.5711 8.88941 40.9692 10.3653 39.891 11.4593L34.9526 16.3977C34.9776 17.221 34.8833 18.0436 34.673 18.8399L40.9723 12.5406C42.3504 11.1626 43.1245 9.29352 43.1245 7.34467C43.1245 5.39582 42.3504 3.5268 40.9723 2.14874C39.5942 0.7707 37.7252 -0.003479 35.7763 -0.003479C33.8275 -0.003479 31.9585 0.7707 30.5804 2.14874Z" fill="white"/>
</g>
</svg>
