<svg width="30" height="30" viewBox="0 0 40 45" fill="none" xmlns="http://www.w3.org/2000/svg">
<path d="M34.1999 40H16.6999C15.3249 40 14.1999 41.125 14.1999 42.5C14.1999 43.875 15.3249 45 16.6999 45H34.1999C36.9499 45 39.1999 42.75 39.1999 40V5C39.1999 2.25 36.9499 0 34.1999 0H16.6999C15.3249 0 14.1999 1.125 14.1999 2.5C14.1999 3.875 15.3249 5 16.6999 5H34.1999V40Z" fill="white"/>
<path d="M8.05929 24.1407L26.2 24.1407C27.3458 24.1407 28.1999 23.3459 28.1999 22.2001C28.1999 21.0542 27.3458 19.9741 26.2 19.9741L8.05929 19.9741V16.2449C8.05929 15.3074 6.93429 14.8491 6.28846 15.5157L0.496792 21.3282C0.100958 21.7449 0.100958 22.3907 0.496792 22.8074L6.28846 28.6199C6.93429 29.2866 8.05929 28.8074 8.05929 27.8907V24.1407Z" fill="white"/>
</svg>
