<svg width="30" height="30" viewBox="0 0 50 50" fill="none" xmlns="http://www.w3.org/2000/svg">
<path d="M43.575 27.45C43.675 26.65 43.75 25.85 43.75 25C43.75 24.15 43.675 23.35 43.575 22.55L48.85 18.425C49.325 18.05 49.45 17.375 49.15 16.825L44.15 8.175C43.85 7.625 43.175 7.425 42.625 7.625L36.4 10.125C35.1 9.125 33.7 8.3 32.175 7.675L31.225 1.05C31.15 0.45 30.625 0 30 0H20C19.375 0 18.85 0.45 18.775 1.05L17.825 7.675C16.3 8.3 14.9 9.15 13.6 10.125L7.375 7.625C6.8 7.4 6.15 7.625 5.85 8.175L0.850003 16.825C0.525003 17.375 0.675003 18.05 1.15 18.425L6.425 22.55C6.325 23.35 6.25 24.175 6.25 25C6.25 25.825 6.325 26.65 6.425 27.45L1.15 31.575C0.675003 31.95 0.550003 32.625 0.850003 33.175L5.85 41.825C6.15 42.375 6.825 42.575 7.375 42.375L13.6 39.875C14.9 40.875 16.3 41.7 17.825 42.325L18.775 48.95C18.85 49.55 19.375 50 20 50H30C30.625 50 31.15 49.55 31.225 48.95L32.175 42.325C33.7 41.7 35.1 40.85 36.4 39.875L42.625 42.375C43.2 42.6 43.85 42.375 44.15 41.825L49.15 33.175C49.45 32.625 49.325 31.95 48.85 31.575L43.575 27.45ZM25 33.75C20.175 33.75 16.25 29.825 16.25 25C16.25 20.175 20.175 16.25 25 16.25C29.825 16.25 33.75 20.175 33.75 25C33.75 29.825 29.825 33.75 25 33.75Z" fill="white"/>
</svg>
