<svg width="30" height="30" viewBox="0 0 23 26" fill="none" xmlns="http://www.w3.org/2000/svg">
<path d="M19 18.1C18.05 18.1 17.2 18.475 16.55 19.0625L7.6375 13.875C7.7 13.5875 7.75 13.3 7.75 13C7.75 12.7 7.7 12.4125 7.6375 12.125L16.45 6.9875C17.125 7.6125 18.0125 8 19 8C21.075 8 22.75 6.325 22.75 4.25C22.75 2.175 21.075 0.5 19 0.5C16.925 0.5 15.25 2.175 15.25 4.25C15.25 4.55 15.3 4.8375 15.3625 5.125L6.55 10.2625C5.875 9.6375 4.9875 9.25 4 9.25C1.925 9.25 0.25 10.925 0.25 13C0.25 15.075 1.925 16.75 4 16.75C4.9875 16.75 5.875 16.3625 6.55 15.7375L15.45 20.9375C15.3875 21.2 15.35 21.475 15.35 21.75C15.35 23.7625 16.9875 25.4 19 25.4C21.0125 25.4 22.65 23.7625 22.65 21.75C22.65 19.7375 21.0125 18.1 19 18.1Z" fill="#00BEB3"/>
</svg>
