<svg width="30" height="30" viewBox="0 0 46 50" fill="none" xmlns="http://www.w3.org/2000/svg">
<path 
        d="M38 35.2C36.1 35.2 34.4 35.95 33.1 37.125L15.275 26.75C15.4 26.175 15.5 25.6 15.5 25C15.5 24.4 15.4 23.825 15.275 23.25L32.9 12.975C34.25 14.225 36.025 15 38 15C42.15 15 45.5 11.65 45.5 7.5C45.5 3.35 42.15 0 38 0C33.85 0 30.5 3.35 30.5 7.5C30.5 8.1 30.6 8.675 30.725 9.25L13.1 19.525C11.75 18.275 9.975 17.5 8 17.5C3.85 17.5 0.5 20.85 0.5 25C0.5 29.15 3.85 32.5 8 32.5C9.975 32.5 11.75 31.725 13.1 30.475L30.9 40.875C30.775 41.4 30.7 41.95 30.7 42.5C30.7 46.525 33.975 49.8 38 49.8C42.025 49.8 45.3 46.525 45.3 42.5C45.3 38.475 42.025 35.2 38 35.2Z" fill="white"/>
</svg>
